<?xml version="1.0" encoding="utf-8"?>
<!-- Generator: Adobe Illustrator 16.0.0, SVG Export Plug-In . SVG Version: 6.00 Build 0)  -->
<!DOCTYPE svg PUBLIC "-//W3C//DTD SVG 1.1//EN" "http://www.w3.org/Graphics/SVG/1.1/DTD/svg11.dtd">
<svg version="1.1" id="Layer_1" xmlns="http://www.w3.org/2000/svg" xmlns:xlink="http://www.w3.org/1999/xlink" x="0px" y="0px"
	 width="48px" height="48px" viewBox="0 0 48 48" enable-background="new 0 0 48 48" xml:space="preserve">
<path fill="#69BBC2" d="M40.051,21.61l-3.717-1.977l3.268-0.556c3.566-1.097,6.17-4.423,6.17-8.346c0-4.815-3.918-8.733-8.732-8.733
	c-3.656,0-6.793,2.263-8.092,5.459l0.217-0.114l-2.502-1.525l0.674-1.171l-4.3-2.482L1,14.887l8.333,4.811L1,24.507l8.332,4.81
	L1,34.127l22.164,12.797l22.036-12.723l-8.332-4.81l8.332-4.812L40.051,21.61z"/>
<circle fill="#44D24A" cx="37.169" cy="10.848" r="7.845"/>
<polygon points="23.164,27.682 1,14.887 23.036,2.164 30.361,6.433 29.906,7.855 23.036,3.952 4.097,14.887 23.164,25.895 
	35.994,18.438 38.383,18.95 "/>
<polygon points="23.164,37.303 1,24.507 10.492,19.027 11.267,20.368 4.097,24.507 23.164,35.516 42.102,24.581 34.287,20.089 
	35.709,19.122 45.199,24.58 "/>
<polygon points="23.164,46.924 1,34.127 10.494,28.646 11.268,29.987 4.097,34.127 23.164,45.137 42.102,34.201 34.938,30.066 
	35.711,28.726 45.199,34.201 "/>
<g>
	<rect x="36.266" y="6.222" width="1.549" height="9.014"/>
	<rect x="32.531" y="9.956" width="9.014" height="1.549"/>
	<path d="M37.039,19.462c-4.816,0-8.734-3.917-8.734-8.731c0-4.815,3.918-8.733,8.734-8.733c4.814,0,8.732,3.917,8.732,8.733
		C45.771,15.545,41.854,19.462,37.039,19.462z M37.039,3.546c-3.963,0-7.186,3.223-7.186,7.184c0,3.96,3.223,7.183,7.186,7.183
		c3.961,0,7.184-3.222,7.184-7.183C44.223,6.769,41,3.546,37.039,3.546z"/>
</g>
</svg>
