<?xml version="1.0" encoding="utf-8"?>
<!-- Generator: Adobe Illustrator 16.0.0, SVG Export Plug-In . SVG Version: 6.00 Build 0)  -->
<!DOCTYPE svg PUBLIC "-//W3C//DTD SVG 1.1//EN" "http://www.w3.org/Graphics/SVG/1.1/DTD/svg11.dtd">
<svg version="1.1" id="Layer_1" xmlns="http://www.w3.org/2000/svg" xmlns:xlink="http://www.w3.org/1999/xlink" x="0px" y="0px"
	 width="48px" height="48px" viewBox="0 0 48 48" enable-background="new 0 0 48 48" xml:space="preserve">
<g>
	<rect x="8.167" y="9.746" fill="#69BBC2" width="30.859" height="23.145"/>
	<polygon fill="#44D24A" points="19.042,14.523 28.305,14.124 28.064,4.862 24.87,2.649 22.635,2.649 19.841,4.144 19.361,6.219 	
		"/>
	<g>
		<path d="M39.291,45H8.204c-0.506,0-0.915-0.408-0.915-0.914V9.341c0-0.504,0.409-0.914,0.915-0.914h10.972v1.829H9.118v32.917
			h29.259V10.256H28.319V8.427h10.972c0.506,0,0.914,0.41,0.914,0.914v34.745C40.205,44.592,39.797,45,39.291,45z"/>
		<path d="M28.319,15.742h-9.144c-0.506,0-0.915-0.41-0.915-0.914v-8.23c0-3.025,2.461-5.486,5.486-5.486s5.485,2.461,5.485,5.486
			v8.23C29.232,15.332,28.824,15.742,28.319,15.742z M20.09,13.913h7.314V6.598c0-2.017-1.641-3.657-3.657-3.657
			s-3.657,1.64-3.657,3.657V13.913z"/>
		<rect x="8.204" y="32.2" width="31.087" height="1.828"/>
		<path d="M24.662,41.343H13.689c-0.506,0-0.915-0.41-0.915-0.914c0-0.505,0.409-0.913,0.915-0.913h10.973
			c0.505,0,0.913,0.408,0.913,0.913C25.575,40.933,25.167,41.343,24.662,41.343z"/>
		<path d="M20.09,37.686h-6.4c-0.506,0-0.915-0.41-0.915-0.914c0-0.505,0.409-0.913,0.915-0.913h6.4
			c0.506,0,0.914,0.408,0.914,0.913C21.004,37.275,20.596,37.686,20.09,37.686z"/>
		<path d="M23.747,8.427c-0.484,0-0.95-0.193-1.299-0.54c-0.338-0.339-0.53-0.805-0.53-1.29c0-0.484,0.192-0.951,0.53-1.289
			c0.687-0.686,1.912-0.686,2.587,0c0.349,0.338,0.54,0.805,0.54,1.289c0,0.485-0.191,0.951-0.54,1.29
			C24.698,8.234,24.231,8.427,23.747,8.427z"/>
	</g>
</g>
</svg>
